<svg xmlns="http://www.w3.org/2000/svg" viewBox="0 0 45.869 37.198"><path d="m79.03 109.199 3.603-3.604v0l4.483 1.201 4.483 1.201 4.482 1.202 13.126-13.127-7.257-1.944-7.813 7.813-10.673-2.86-2.86-10.673 7.813-7.813-1.945-7.258-13.126 13.126 1.202 4.483 1.2 4.483 1.202 4.482-9.289 9.288Z" style="fill:#fea;fill-opacity:1;stroke:#fea;stroke-width:1.32291663;stroke-linecap:round;stroke-linejoin:round;stroke-miterlimit:4;stroke-dasharray:none;stroke-opacity:1" transform="translate(-64 -72.67)"/><path d="m76.03 109.199 3.603-3.604v0l4.483 1.201 4.483 1.201 4.482 1.202 13.126-13.127-7.257-1.944-7.813 7.813-10.673-2.86-2.86-10.673 7.813-7.813-1.945-7.258-13.126 13.126 1.202 4.483 1.2 4.483 1.202 4.482-9.289 9.288Z" style="fill:#aef;fill-opacity:1;stroke:#aef;stroke-width:1.32291663;stroke-linecap:round;stroke-linejoin:round;stroke-miterlimit:4;stroke-dasharray:none;stroke-opacity:1" transform="translate(-64 -72.67)"/><path d="m78.03 109.199 3.603-3.604v0l4.483 1.201 4.483 1.201 4.482 1.202 13.126-13.127-7.257-1.944-7.813 7.813-10.673-2.86-2.86-10.673 7.813-7.813-1.945-7.258-13.126 13.126 1.202 4.483 1.2 4.483 1.202 4.482-9.289 9.288Z" style="fill:#faa;fill-opacity:1;stroke:#faa;stroke-width:1.32291663;stroke-linecap:round;stroke-linejoin:round;stroke-miterlimit:4;stroke-dasharray:none;stroke-opacity:1" transform="translate(-64 -72.67)"/><path d="m103.406 94.128-7.813 7.813-10.673-2.86-2.86-10.673 7.814-7.813" style="fill:none;fill-opacity:1;stroke:#000;stroke-width:.66145831;stroke-linecap:round;stroke-linejoin:round;stroke-miterlimit:4;stroke-dasharray:none;stroke-dashoffset:0;stroke-opacity:1" transform="translate(-67.45 -72.67)"/><path d="M110.664 96.072 97.538 109.2l-4.483-1.202-4.482-1.201-4.483-1.201v0l-3.604 3.604m-11.368 0 9.288-9.288-1.2-4.482-1.202-4.483-1.2-4.483 13.125-13.126" style="fill:none;fill-opacity:1;stroke:#000;stroke-width:1.32291663;stroke-linecap:round;stroke-linejoin:round;stroke-miterlimit:4;stroke-dasharray:none;stroke-opacity:1" transform="translate(-67.45 -72.67)"/></svg>