<svg data-name="Layer 1" viewBox="0 0 756.96 473.36" xmlns="http://www.w3.org/2000/svg"><path d="M654.23 315.877a10.056 10.056 0 0 1 4.9-14.62l-1.422-35.707 15.897 9.598-1.088 32.436a10.11 10.11 0 0 1-18.287 8.293Z" fill="#a0616a"/><path d="m675.447 292.73-14.132 2.257a4.5 4.5 0 0 1-5.17-3.85l-5.98-45.03-29.544-40.432a13.58 13.58 0 0 1 3.652-19.453 13.579 13.579 0 0 1 18.753 4.13L673.2 237.57l6.006 50.181a4.554 4.554 0 0 1 .013.965 4.486 4.486 0 0 1-3.772 4.013Z" fill="#f59e0b"/><path fill="#a0616a" d="M626.725 459.863h-12.26l-5.832-47.288 18.094.001-.002 47.287z"/><path d="M605.708 456.36h23.644v14.887H590.82a14.887 14.887 0 0 1 14.887-14.887Z" fill="#2f2e41"/><path fill="#a0616a" d="m678.45 438.879-9.16 8.148-34.145-33.667 11.876-9.813 31.429 35.332z"/><path d="m660.42 450.23 17.665-15.714 9.894 11.123-28.788 25.609a14.887 14.887 0 0 1 1.228-21.018Z" fill="#2f2e41"/><path d="M503.523 189.457a10.056 10.056 0 0 1 12.324 9.267l34.328 9.93-14.129 12.05-30.432-11.277a10.11 10.11 0 0 1-2.09-19.97Z" fill="#a0616a"/><circle cx="610.547" cy="130.628" r="24.561" fill="#a0616a"/><path d="m628.23 451.009-17.064-1.366a4.497 4.497 0 0 1-4.139-4.337l-4.762-143.833a4.49 4.49 0 0 1 3.876-4.605l34.02-4.747a4.5 4.5 0 0 1 5.057 5.214L632.2 373.584a3.514 3.514 0 0 0-.05.634l.939 72.246a4.501 4.501 0 0 1-4.503 4.56 4.34 4.34 0 0 1-.356-.015Z" fill="#2f2e41"/><path d="m650.084 433.758-58.62-65.239a4.504 4.504 0 0 1-1.127-3.484l7.404-69.405a4.493 4.493 0 0 1 4.773-4.013l35.976 2.398a4.5 4.5 0 0 1 3.964 5.931l-21.555 63.768a3.487 3.487 0 0 0 .797 3.55l49.792 51.604a4.5 4.5 0 0 1-.949 6.999l-14.819 8.757a4.51 4.51 0 0 1-5.636-.866Z" fill="#2f2e41"/><path d="M606.145 170.36s15-13 22-6c0 0 32.5 20.5 18.5 76.5 0 0 12 54 7 56s-55.5 9.5-59.5 3.5-6-98 12-130Z" fill="#f59e0b"/><path d="m518.783 216.9 2.322-14.122a4.5 4.5 0 0 1 5.287-3.69l44.613 8.551 47.694-15.26a13.58 13.58 0 0 1 17.303 9.61 13.579 13.579 0 0 1-9.842 16.488l-54.332 13.714-49.508-10.152a4.554 4.554 0 0 1-.92-.293 4.486 4.486 0 0 1-2.617-4.846Z" fill="#f59e0b"/><path d="M621.086 150.55c2.245-5.194 4.144-12.112-.16-15.785-2.498-2.13-6.095-2.134-9.366-2.4-9.218-.746-18.706-4.987-23.211-13.063s-1.99-20.084 6.51-23.728c5.73-2.456 12.298-.783 18.295.918l18.006 5.106c5.35 1.517 10.967 3.19 14.818 7.201 6.143 6.398 5.684 17.212.805 24.618s-12.226 15.131-20.638 17.943Z" fill="#2f2e41"/><path d="M977.48 686.68h-248a1 1 0 0 1 0-2h248a1 1 0 0 1 0 2ZM715.52 213.32h-487a7.008 7.008 0 0 0-7 7v360a7.008 7.008 0 0 0 7 7h487a7.008 7.008 0 0 0 7-7v-360a7.008 7.008 0 0 0-7-7Zm5 367a5.002 5.002 0 0 1-5 5h-487a5.002 5.002 0 0 1-5-5v-360a5.002 5.002 0 0 1 5-5h487a5.002 5.002 0 0 1 5 5Z" transform="translate(-221.52 -213.32)" fill="#3f3d56" style="fill:#fff;fill-opacity:1"/><path fill="#3f3d56" style="fill:#fff;fill-opacity:1" d="M1 28.04h499v2H1z"/><circle cx="18" cy="15" r="6" fill="#3f3d56" style="fill:#fff;fill-opacity:1"/><circle cx="35.25" cy="15" r="6" fill="#3f3d56" style="fill:#fff;fill-opacity:1"/><circle cx="52.5" cy="15" r="6" fill="#3f3d56" style="fill:#fff;fill-opacity:1"/><path d="M523.343 524.625a1 1 0 0 1-1-1v-41a1 1 0 0 1 2 0v41a1 1 0 0 1-1 1ZM521.972 466.625a.995.995 0 0 1-.503-.136l-56.815-33.104a1 1 0 0 1 1.007-1.729l56.815 33.104a1 1 0 0 1-.504 1.865Z" transform="translate(-221.52 -213.32)" fill="#3f3d56" style="fill:#fff;fill-opacity:1"/><path d="M408.344 466.625a1 1 0 0 1-.505-1.865l56.815-33.104a1 1 0 0 1 1.007 1.729l-56.815 33.104a1 1 0 0 1-.502.136ZM580.972 516.625a.995.995 0 0 1-.503-.136l-56.815-33.104a1 1 0 0 1 1.007-1.729l56.815 33.104a1 1 0 0 1-.504 1.865Z" transform="translate(-221.52 -213.32)" fill="#3f3d56" style="fill:#fff;fill-opacity:1"/><path d="M467.344 516.625a1 1 0 0 1-.505-1.865l56.815-33.104a1 1 0 0 1 1.007 1.729l-56.815 33.104a1 1 0 0 1-.502.136ZM465.343 415.625a1 1 0 0 1-1-.998l-.093-36.387a1 1 0 0 1 .998-1.002h.002a1 1 0 0 1 1 .997l.093 36.387a1 1 0 0 1-.998 1.003Z" transform="translate(-221.52 -213.32)" fill="#3f3d56" style="fill:#fff;fill-opacity:1"/><path d="M256.756 221.22h-26.052a4.505 4.505 0 0 1-4.5-4.5v-13.38a4.505 4.505 0 0 1 4.5-4.5h26.052a4.505 4.505 0 0 1 4.5 4.5v13.38a4.505 4.505 0 0 1-4.5 4.5Z" fill="#ccc"/><path d="M435.158 366.52h-55.434a1 1 0 0 1 0-2h55.434a1 1 0 0 1 0 2ZM465.25 352.238a1 1 0 0 1-1-1v-34.613a1 1 0 0 1 2 0v34.613a1 1 0 0 1-1 1ZM358.157 366.52a.996.996 0 0 1-.51-.139l-53.814-31.896a1 1 0 0 1 1.02-1.72l53.815 31.895a1 1 0 0 1-.511 1.86Z" transform="translate(-221.52 -213.32)" fill="#3f3d56" style="fill:#fff;fill-opacity:1"/><path d="M304.344 398.417a1 1 0 0 1-.511-1.86l53.815-31.897a1 1 0 0 1 1.02 1.721l-53.815 31.896a.996.996 0 0 1-.51.14Z" transform="translate(-221.52 -213.32)" fill="#3f3d56" style="fill:#fff;fill-opacity:1"/><path d="M154.204 169.33h-13.381a4.505 4.505 0 0 1-4.5-4.5V138.78a4.505 4.505 0 0 1 4.5-4.5h13.381a4.505 4.505 0 0 1 4.5 4.5v26.052a4.505 4.505 0 0 1-4.5 4.5ZM256.756 105.996h-26.052a4.505 4.505 0 0 1-4.5-4.5V88.114a4.505 4.505 0 0 1 4.5-4.5h26.052a4.505 4.505 0 0 1 4.5 4.5v13.382a4.505 4.505 0 0 1-4.5 4.5ZM79.204 138.33H65.823a4.505 4.505 0 0 1-4.5-4.5V107.78a4.505 4.505 0 0 1 4.5-4.5h13.381a4.505 4.505 0 0 1 4.5 4.5v26.052a4.505 4.505 0 0 1-4.5 4.5ZM79.204 201.33H65.823a4.505 4.505 0 0 1-4.5-4.5V170.78a4.505 4.505 0 0 1 4.5-4.5h13.381a4.505 4.505 0 0 1 4.5 4.5v26.052a4.505 4.505 0 0 1-4.5 4.5Z" fill="#ccc"/><path d="M550.776 366.52h-55.433a1 1 0 0 1 0-2h55.433a1 1 0 0 1 0 2ZM572.344 366.52a1 1 0 0 1-.511-1.86l53.815-31.896a1 1 0 1 1 1.02 1.721l-53.816 31.896a.995.995 0 0 1-.508.14Z" transform="translate(-221.52 -213.32)" fill="#3f3d56" style="fill:#fff;fill-opacity:1"/><path d="M626.157 398.417a.995.995 0 0 1-.51-.14l-53.814-31.896a1 1 0 1 1 1.02-1.72l53.814 31.895a1 1 0 0 1-.51 1.86Z" transform="translate(-221.52 -213.32)" fill="#3f3d56" style="fill:#fff;fill-opacity:1"/><path d="M346.638 169.33h-13.382a4.505 4.505 0 0 1-4.5-4.5V138.78a4.505 4.505 0 0 1 4.5-4.5h13.382a4.505 4.505 0 0 1 4.5 4.5v26.052a4.505 4.505 0 0 1-4.5 4.5ZM421.638 138.33h-13.382a4.505 4.505 0 0 1-4.5-4.5V107.78a4.505 4.505 0 0 1 4.5-4.5h13.382a4.505 4.505 0 0 1 4.5 4.5v26.052a4.505 4.505 0 0 1-4.5 4.5ZM421.638 201.33h-13.382a4.505 4.505 0 0 1-4.5-4.5V170.78a4.505 4.505 0 0 1 4.5-4.5h13.382a4.505 4.505 0 0 1 4.5 4.5v26.052a4.505 4.505 0 0 1-4.5 4.5ZM198.756 272.22h-26.052a4.505 4.505 0 0 1-4.5-4.5v-13.38a4.505 4.505 0 0 1 4.5-4.5h26.052a4.505 4.505 0 0 1 4.5 4.5v13.38a4.505 4.505 0 0 1-4.5 4.5ZM314.571 272.22H288.52a4.505 4.505 0 0 1-4.5-4.5v-13.38a4.505 4.505 0 0 1 4.5-4.5h26.052a4.505 4.505 0 0 1 4.5 4.5v13.38a4.505 4.505 0 0 1-4.5 4.5ZM261.571 321.22H235.52a4.505 4.505 0 0 1-4.5-4.5v-13.38a4.505 4.505 0 0 1 4.5-4.5h26.052a4.505 4.505 0 0 1 4.5 4.5v13.38a4.505 4.505 0 0 1-4.5 4.5ZM372.571 321.22H346.52a4.505 4.505 0 0 1-4.5-4.5v-13.38a4.505 4.505 0 0 1 4.5-4.5h26.052a4.505 4.505 0 0 1 4.5 4.5v13.38a4.505 4.505 0 0 1-4.5 4.5ZM314.571 321.22H288.52a4.505 4.505 0 0 1-4.5-4.5v-13.38a4.505 4.505 0 0 1 4.5-4.5h26.052a4.505 4.505 0 0 1 4.5 4.5v13.38a4.505 4.505 0 0 1-4.5 4.5Z" fill="#ccc"/><path d="M275.4 169.597H212.06a4.505 4.505 0 0 1-4.5-4.5v-25.792a4.505 4.505 0 0 1 4.5-4.5H275.4a4.505 4.505 0 0 1 4.5 4.5v25.792a4.505 4.505 0 0 1-4.5 4.5Z" fill="#f59e0b"/></svg>